HIERARCHY
ROOT Hips
{
    OFFSET 0.000000 0.000000 0.000000
    CHANNELS 6 Xposition Yposition Zposition Zrotation Xrotation Yrotation
    JOINT Spine
    {
        OFFSET -0.000000 7.871866 0.000000
        CHANNELS 3 Zrotation Xrotation Yrotation
        JOINT Spine1
        {
            OFFSET -0.000000 20.477478 0.000000
            CHANNELS 3 Zrotation Xrotation Yrotation
            JOINT Neck
            {
                OFFSET -0.000000 20.393381 1.853944
                CHANNELS 3 Zrotation Xrotation Yrotation
                JOINT Head
                {
                    OFFSET -0.000000 13.439772 -1.919967
                    CHANNELS 3 Zrotation Xrotation Yrotation
                    End Site
                    {
                        OFFSET -0.000000 23.999592 0.000000
                    }
                }
            }
            JOINT LeftShoulder
            {
                OFFSET 3.872530 18.410604 -0.225466
                CHANNELS 3 Zrotation Xrotation Yrotation
                JOINT LeftArm
                {
                    OFFSET 11.402711 0.000000 0.000000
                    CHANNELS 3 Zrotation Xrotation Yrotation
                    JOINT LeftForeArm
                    {
                        OFFSET 30.885973 0.000000 0.000000
                        CHANNELS 3 Zrotation Xrotation Yrotation
                        JOINT LeftHand
                        {
                            OFFSET 25.505432 0.000000 0.000000
                            CHANNELS 3 Zrotation Xrotation Yrotation
                            End Site
                            {
                                OFFSET 14.399755 0.000000 0.000000
                            }
                        }
                    }
                }
            }
            JOINT RightShoulder
            {
                OFFSET -3.749425 18.410604 -0.225466
                CHANNELS 3 Zrotation Xrotation Yrotation
                JOINT RightArm
                {
                    OFFSET -11.402711 0.000000 0.000000
                    CHANNELS 3 Zrotation Xrotation Yrotation
                    JOINT RightForeArm
                    {
                        OFFSET -30.885973 0.000000 0.000000
                        CHANNELS 3 Zrotation Xrotation Yrotation
                        JOINT RightHand
                        {
                            OFFSET -25.505432 0.000000 0.000000
                            CHANNELS 3 Zrotation Xrotation Yrotation
                            End Site
                            {
                                OFFSET -14.399755 0.000000 0.000000
                            }
                        }
                    }
                }
            }
        }
    }
    JOINT LeftUpLeg
    {
        OFFSET 9.599837 0.000000 0.000000
        CHANNELS 3 Zrotation Xrotation Yrotation
        JOINT LeftLeg
        {
            OFFSET -0.000000 -39.304852 0.000000
            CHANNELS 3 Zrotation Xrotation Yrotation
            JOINT LeftFoot
            {
                OFFSET -0.000000 -46.901295 0.000000
                CHANNELS 3 Zrotation Xrotation Yrotation
                JOINT LeftToeBase
                {
                    OFFSET -0.000000 -6.239893 14.399755
                    CHANNELS 3 Zrotation Xrotation Yrotation
                    End Site
                    {
                        OFFSET -0.000000 0.000000 3.839935
                    }
                }
            }
        }
    }
    JOINT RightUpLeg
    {
        OFFSET -9.599837 0.000000 0.000000
        CHANNELS 3 Zrotation Xrotation Yrotation
        JOINT RightLeg
        {
            OFFSET -0.000000 -39.304852 0.000000
            CHANNELS 3 Zrotation Xrotation Yrotation
            JOINT RightFoot
            {
                OFFSET -0.000000 -46.901295 0.000000
                CHANNELS 3 Zrotation Xrotation Yrotation
                JOINT RightToeBase
                {
                    OFFSET -0.000000 -6.239893 14.399755
                    CHANNELS 3 Zrotation Xrotation Yrotation
                    End Site
                    {
                        OFFSET -0.000000 0.000000 3.839935
                    }
                }
            }
        }
    }
}
MOTION
Frames:    10
Frame Time:    0.008333
-1.148412    91.531876    0.109624    0.227980    -0.820608    6.492796    -2.859943    -5.824601    -0.048108    1.825322    2.162182    0.063681    1.282567    18.923388    -0.271322    1.364931    0.558623    -0.061368    16.673847    -0.154510    -8.035321    -17.674831    11.387322    -3.747389    0.983602    1.373299    -2.352899    -0.395899    1.401611    -2.342996    -13.766902    1.678418    -7.903996    10.687282    13.718797    10.917349    0.422408    -0.459400    3.779958    9.814763    -0.598016    -1.451277    2.320058    3.766402    1.230893    -1.628515    2.276688    -2.597823    -2.987110    -8.043349    6.907935    0.000000    0.000000    0.000000    -4.817820    5.709586    -0.387790    0.182560    0.877070    -1.751356    2.624703    -7.275509    -11.182436    0.000000    0.000000    0.000000    
-1.150249    91.531250    0.112215    0.228875    -0.818757    6.491217    -2.857602    -5.831879    -0.044717    1.819417    2.169789    0.066486    1.277362    18.911787    -0.260645    1.366956    0.594655    -0.050928    16.670980    -0.162051    -8.035974    -17.686377    11.417994    -3.761621    0.982637    1.373969    -2.346972    -0.392575    1.402163    -2.361306    -13.765039    1.678768    -7.909030    10.678779    13.714817    10.934775    0.419007    -0.469413    3.785497    9.812511    -0.606860    -1.439681    2.319296    3.767469    1.240800    -1.625057    2.274817    -2.613130    -2.992356    -8.042700    6.908310    0.000000    0.000000    0.000000    -4.816522    5.709647    -0.385532    0.179274    0.872827    -1.788064    2.622683    -7.277368    -11.140743    0.000000    0.000000    0.000000    
-1.152396    91.530991    0.114904    0.229514    -0.817351    6.491931    -2.837080    -5.796647    -0.051940    1.789803    2.108012    0.059492    1.245734    18.921812    -0.241341    1.396795    0.633428    -0.027851    16.644955    -0.143932    -8.002744    -17.671329    11.451543    -3.784848    0.979281    1.396331    -2.354644    -0.384061    1.424360    -2.345365    -13.741123    1.676624    -7.918381    10.652422    13.692982    10.977772    0.427478    -0.458746    3.800637    9.802283    -0.597879    -1.456282    2.321972    3.766002    1.245159    -1.628052    2.277562    -2.614446    -3.024412    -8.059235    6.911487    0.000000    0.000000    0.000000    -4.817604    5.714947    -0.377851    0.182605    0.867198    -1.737011    2.619516    -7.277531    -11.202146    0.000000    0.000000    0.000000    
-1.154117    91.530632    0.116566    0.231378    -0.815418    6.492517    -2.838770    -5.801367    -0.050034    1.788614    2.113401    0.060634    1.259099    18.916851    -0.233573    1.371053    0.655061    -0.023074    16.635206    -0.136524    -8.006882    -17.673891    11.486773    -3.795744    0.985220    1.395336    -2.355774    -0.399159    1.423804    -2.346848    -13.746669    1.676996    -7.918066    10.652411    13.693606    10.991032    0.423223    -0.477721    3.808848    9.805506    -0.617112    -1.460202    2.320904    3.763445    1.241211    -1.628339    2.280540    -2.619867    -2.995012    -8.043805    6.914306    0.000000    0.000000    0.000000    -4.816768    5.713783    -0.384495    0.179958    0.865205    -1.791224    2.620879    -7.279393    -11.139343    0.000000    0.000000    0.000000    
-1.155969    91.530197    0.119437    0.231897    -0.815091    6.494437    -2.838730    -5.805404    -0.049095    1.788238    2.117077    0.062023    1.257845    18.923986    -0.226510    1.366357    0.662042    -0.016588    16.622818    -0.129801    -8.015707    -17.675129    11.504952    -3.803092    0.984467    1.405466    -2.353394    -0.422680    1.434395    -2.356648    -13.750648    1.677648    -7.912035    10.650842    13.653490    10.995094    0.440675    -0.468371    3.818696    9.802532    -0.608076    -1.457859    2.321827    3.761660    1.244790    -1.625957    2.289349    -2.629856    -3.001210    -8.053616    6.919232    0.000000    0.000000    0.000000    -4.813862    5.712745    -0.393291    0.176467    0.873120    -1.751417    2.610031    -7.286887    -11.176454    0.000000    0.000000    0.000000    
-1.157435    91.529755    0.121904    0.232790    -0.813450    6.494370    -2.836946    -5.808922    -0.046047    1.781840    2.120197    0.065363    1.255849    18.921497    -0.224171    1.374659    0.677642    -0.013351    16.618551    -0.126341    -8.017382    -17.683069    11.547027    -3.821253    0.995609    1.395232    -2.351131    -0.450551    1.424916    -2.356536    -13.747587    1.684106    -7.912386    10.646878    13.645403    11.004306    0.444631    -0.470522    3.829669    9.791393    -0.610227    -1.457052    2.323918    3.762425    1.228966    -1.629731    2.287880    -2.647015    -2.993848    -8.056276    6.948822    0.000000    0.000000    0.000000    -4.813886    5.715639    -0.399665    0.176865    0.862605    -1.792240    2.617374    -7.283907    -11.132781    0.000000    0.000000    0.000000    
-1.159381    91.530060    0.124583    0.234897    -0.812093    6.496192    -2.837466    -5.809148    -0.044592    1.774942    2.119900    0.066614    1.251999    18.928949    -0.221106    1.387455    0.674573    -0.008302    16.614159    -0.113188    -8.019962    -17.687462    11.567864    -3.835639    0.999685    1.389637    -2.355666    -0.463314    1.419709    -2.359965    -13.747808    1.686371    -7.915212    10.649193    13.658646    11.019103    0.434121    -0.473651    3.839189    9.806933    -0.612933    -1.452742    2.322548    3.758981    1.230054    -1.629768    2.293734    -2.635103    -2.995098    -8.053075    6.935560    0.000000    0.000000    0.000000    -4.814532    5.716909    -0.383527    0.177318    0.864777    -1.779489    2.617510    -7.290426    -11.158980    0.000000    0.000000    0.000000    
-1.161182    91.529861    0.127234    0.236180    -0.809335    6.495120    -2.840642    -5.813171    -0.041466    1.772308    2.125982    0.070391    1.257004    18.928719    -0.219161    1.389688    0.673905    -0.006008    16.611628    -0.117890    -8.019880    -17.694517    11.589274    -3.851372    0.995006    1.393232    -2.355674    -0.463940    1.423164    -2.346261    -13.743748    1.693060    -7.915737    10.647851    13.652370    11.029761    0.433409    -0.467086    3.847894    9.811133    -0.606906    -1.457860    2.322086    3.759841    1.230110    -1.631227    2.289654    -2.619546    -3.001801    -8.055871    6.927780    0.000000    0.000000    0.000000    -4.813722    5.715439    -0.385233    0.174357    0.864736    -1.773247    2.610667    -7.288767    -11.164266    0.000000    0.000000    0.000000    
-1.162956    91.529617    0.130620    0.237293    -0.811024    6.497959    -2.839523    -5.811586    -0.039483    1.768113    2.128734    0.071605    1.240846    18.940731    -0.220455    1.413041    0.658118    -0.003724    16.603765    -0.109404    -8.025982    -17.701691    11.616444    -3.862130    1.004605    1.405856    -2.347058    -0.483396    1.436365    -2.355316    -13.747491    1.697437    -7.918293    10.652386    13.663445    11.042489    0.424531    -0.463581    3.856697    9.825847    -0.603421    -1.459319    2.321357    3.761730    1.238319    -1.628832    2.291944    -2.623874    -3.003164    -8.054752    6.919860    0.000000    0.000000    0.000000    -4.813861    5.717854    -0.384882    0.176534    0.869679    -1.770185    2.615957    -7.293398    -11.170785    0.000000    0.000000    0.000000    
-1.164921    91.529358    0.132780    0.237016    -0.809399    6.501212    -2.860144    -5.852708    -0.032597    1.792659    2.198856    0.079807    1.264505    18.931139    -0.229731    1.391310    0.635815    -0.015702    16.622398    -0.133069    -8.053845    -17.740334    11.596726    -3.868809    1.005849    1.415491    -2.329182    -0.517692    1.446647    -2.364653    -13.774573    1.698256    -7.911229    10.678642    13.677717    11.030054    0.412859    -0.472013    3.851820    9.838739    -0.610651    -1.447736    2.322992    3.759947    1.237182    -1.627918    2.294346    -2.636016    -2.991796    -8.054882    6.928426    0.000000    0.000000    0.000000    -4.812313    5.714932    -0.382564    0.176488    0.874131    -1.779267    2.595764    -7.300547    -11.163642    0.000000    0.000000    0.000000    
